<svg width="24" height="24" viewBox="0 0 24 24" fill="none" xmlns="http://www.w3.org/2000/svg">
<path d="M18.7497 6.40676C18.7381 4.53566 17.3583 2.89412 15.4169 2.56793L15.4158 2.56775L15.0187 2.50191C15.0186 2.50188 15.0184 2.50186 15.0183 2.50183C13.0201 2.16665 10.98 2.16665 8.98176 2.50183C8.9816 2.50186 8.98145 2.50188 8.98129 2.50191L8.58422 2.56775L8.58317 2.56793C6.47042 2.9229 5.02282 4.83555 5.27982 6.90659L5.27983 6.90661L5.29783 7.05161L5.29788 7.05204C5.34628 7.43927 5.68288 7.75002 6.10702 7.75002H17.8876C18.0809 7.75341 18.2692 7.68735 18.4181 7.56368C18.478 7.51389 18.5299 7.45612 18.5727 7.39242L18.9071 7.43417L18.9616 6.99717L18.8897 7.57924L19.0361 7.59735C18.8076 7.9911 18.3766 8.25002 17.893 8.25002H15.928H15.3095L15.4391 8.85478L17.1101 16.6528L17.1332 16.7604L17.1993 16.8484C17.2213 16.8777 17.2367 16.9114 17.2443 16.9472C17.2519 16.9831 17.2517 17.0201 17.2435 17.0558L17.2189 17.1636L17.2421 17.2718L18.242 21.938C18.2518 22 18.2378 22.0636 18.2028 22.116C18.1666 22.1699 18.1109 22.2077 18.0474 22.2213C17.9839 22.2349 17.9176 22.2233 17.8626 22.1888C17.8091 22.1554 17.7703 22.1031 17.7538 22.0425L16.8109 17.6452L16.7262 17.25H16.322H7.67802H7.27378L7.18911 17.6453L6.24511 22.0523L6.24509 22.0524C6.23121 22.1172 6.19213 22.1739 6.13644 22.21C6.08076 22.246 6.01304 22.2585 5.94817 22.2446C5.8833 22.2307 5.82661 22.1916 5.79056 22.1359C5.75453 22.0803 5.74207 22.0126 5.75592 21.9478C5.75593 21.9477 5.75594 21.9477 5.75594 21.9477L6.75792 17.2718L6.78122 17.163L6.75624 17.0547C6.74813 17.0195 6.74786 16.983 6.75544 16.9477C6.76302 16.9125 6.77826 16.8793 6.80009 16.8506L6.86758 16.7618L6.89093 16.6527L8.56093 8.85472L8.69043 8.25002H8.07202L6.10702 8.25001L6.10451 8.25002C5.78567 8.25163 5.47723 8.13671 5.23716 7.92689C4.99782 7.71769 4.84287 7.42851 4.80122 7.11344L4.78462 6.9718L4.78463 6.9718L4.78419 6.9683C4.49241 4.62237 6.13267 2.47237 8.50074 2.07513L8.50122 2.07505L8.89777 2.00812C8.89785 2.00811 8.89794 2.00809 8.89802 2.00808C10.9517 1.66348 13.0484 1.66348 15.102 2.00808C15.1021 2.0081 15.1022 2.00811 15.1023 2.00812L15.5 2.07508L15.5003 2.07512C17.7481 2.45233 19.3407 4.41023 19.2462 6.61572L19.0129 6.58686L19.031 6.44187L18.7497 6.40676ZM9.60602 8.25002H9.20175L9.1171 8.64533L7.5111 16.1453L7.38162 16.75H8.00002H16.002H16.6205L16.4909 16.1453L14.8839 8.64526L14.7992 8.25002H14.395H14.394H9.60602Z" fill="#BBBBBB" stroke="#979C9E"/>
</svg>
