<svg width="1920" height="1080" viewBox="0 0 1920 1080" fill="none" xmlns="http://www.w3.org/2000/svg">
<g clip-path="url(#clip0_1260_11168)">
<rect width="1920" height="1080" fill="#FFF7EE"/>
<path opacity="0.1" d="M491 800.044C266.5 748.544 137 751.544 -62 821.045V1166.04H1996L2082 892.044C1962 844.544 1704.5 745.544 1306.5 821.044C1043.19 870.993 773.958 864.955 491 800.044Z" fill="#FF8B00" fill-opacity="0.94"/>
<path opacity="0.1" d="M397 853.103C103.985 816.205 0.833334 746.544 -19.5 764.544V1135.54H1926V807.603C1690 896.603 1458.5 759.603 1194.5 746.603C930.5 733.603 805.5 904.544 397 853.103Z" fill="#FF8B00"/>
<g clip-path="url(#clip1_1260_11168)">
<path d="M61.8737 81.9935C62.3349 80.79 62.5943 79.128 62.5943 77.0362V53.6251C62.5943 51.5047 62.3637 49.8713 61.8737 48.6678C61.3836 47.4643 60.7783 46.4614 60 45.6591H70.752C77.526 45.6591 83.2335 46.7766 87.932 48.983C92.6018 51.1895 95.2826 55.3158 95.9456 61.3047C96.0897 62.9093 96.1762 64.0555 96.1762 64.7432C96.1762 71.4772 93.8701 76.5204 89.2292 79.8444C84.5883 83.197 78.4484 84.8877 70.752 84.9736H60C60.7783 84.1713 61.3836 83.1684 61.8737 81.9649V81.9935ZM83.7523 78.7842C86.9808 75.9473 88.6238 71.5631 88.6238 65.6315C88.6238 64.1128 88.5085 62.5082 88.3068 60.8175C87.6438 55.9462 85.8278 52.5936 82.8587 50.7596C79.8897 48.9257 75.8541 48.0088 70.8096 48.0088V83.1397C76.2288 83.0538 80.5527 81.621 83.7811 78.7842H83.7523Z" fill="#FF8B00"/>
<path d="M113.788 45.6591H116.469L132.813 85.0023H124.627L120.245 74.8011H105.083L101.076 85.0023H98.3379L113.788 45.6591ZM119.323 72.652L112.289 56.29L105.919 72.652H119.323ZM111.742 48.324C111.742 47.2637 111.54 46.3754 111.136 45.6591H113.76L110.618 53.6251C111.338 51.476 111.713 49.7281 111.713 48.324H111.742Z" fill="#FF8B00"/>
<path d="M170.373 74.3427L177.061 57.207L172.218 45.6304H180.405L192.742 74.3427L203.955 45.6591H206.694L191.272 85.0023H188.591L178.445 60.5597L168.903 85.0023H166.223L149.85 45.6591H158.036L170.373 74.3713V74.3427Z" fill="#FF8B00"/>
<path d="M211.334 81.9935C211.824 80.79 212.084 79.128 212.084 77.0362V53.6251C212.084 51.5047 211.824 49.8713 211.334 48.6678C210.844 47.4643 210.21 46.4614 209.432 45.6591H219.751V63.3392H235.49V45.6591H245.81C245.031 46.4614 244.397 47.4643 243.907 48.6678C243.417 49.8713 243.158 51.5333 243.158 53.6251V77.0362C243.158 79.1567 243.417 80.79 243.907 81.9935C244.397 83.197 245.031 84.2 245.81 85.0023H235.49V65.5169H219.751V85.0023H209.432C210.21 84.2 210.844 83.197 211.334 81.9935Z" fill="#FF8B00"/>
<path d="M252.123 81.9935C252.613 80.79 252.873 79.128 252.873 77.0362V53.6251C252.873 51.5047 252.613 49.8713 252.123 48.6678C251.633 47.4643 250.999 46.4614 250.221 45.6591H263.106C262.327 46.4614 261.693 47.4643 261.203 48.6678C260.713 49.8713 260.454 51.5333 260.454 53.6251V77.0362C260.454 79.1567 260.713 80.79 261.203 81.9935C261.693 83.197 262.327 84.2 263.106 85.0023H250.221C250.999 84.2 251.633 83.197 252.123 81.9935Z" fill="#FF8B00"/>
<path d="M294.496 50.2152C293.459 49.3842 292.277 48.7252 290.951 48.2094C289.567 47.6363 287.895 47.3497 285.964 47.3497C283.831 47.3497 282.073 47.8369 280.602 48.7825C279.161 49.7281 278.441 51.2468 278.441 53.3673C278.441 54.6281 278.729 55.717 279.277 56.548C279.824 57.379 280.747 58.1526 282.015 58.7831C283.283 59.4135 285.013 60.0439 287.261 60.617C289.856 61.3333 292.075 62.1643 293.862 63.0813C295.649 63.9983 297.12 65.2304 298.215 66.7778C299.31 68.3252 299.858 70.2737 299.858 72.652C299.858 77.3515 298.273 80.7041 295.073 82.6813C291.902 84.6871 287.924 85.69 283.168 85.69C276.884 85.69 271.638 83.369 267.458 78.7555L269.389 75.4316C270.254 78.0392 271.926 79.9877 274.347 81.2485C276.769 82.5093 279.392 83.1398 282.217 83.1398C284.753 83.1398 286.742 82.5093 288.212 81.2485C289.683 79.9877 290.519 78.469 290.749 76.6351C290.836 75.9187 290.864 75.3743 290.864 75.0018C290.864 73.3971 290.374 72.0503 289.394 70.9328C288.414 69.8152 286.627 68.8409 284.004 68.0099L282.678 67.5801C279.997 66.7778 277.806 65.9754 276.077 65.1731C274.347 64.3708 272.906 63.1959 271.695 61.6772C270.485 60.1585 269.879 58.1813 269.879 55.717C269.879 52.0778 271.263 49.3842 274.001 47.6363C276.74 45.8883 280.43 45.0287 285.099 45.0287C287.838 45.0287 290.259 45.4585 292.306 46.3182C294.381 47.1778 296.485 48.3813 298.647 49.9573L296.658 53.6252C296.226 52.1924 295.477 51.1035 294.439 50.2725L294.496 50.2152Z" fill="#FF8B00"/>
<path d="M306.199 82.0222C306.689 80.8187 306.949 79.128 306.949 77.0362V53.6251C306.949 51.5047 306.689 49.8427 306.199 48.6392C305.709 47.407 305.075 46.4327 304.297 45.6591H317.24C316.461 46.4327 315.827 47.407 315.337 48.6392C314.847 49.8427 314.588 51.5333 314.588 53.6251V77.0362C314.588 79.1567 314.847 80.8187 315.337 82.0222C315.827 83.2543 316.461 84.2286 317.24 85.0023H304.297C305.075 84.2286 305.709 83.2543 306.199 82.0222ZM338.657 45.6591H343.384L323.466 62.9953L345.373 84.9736H335.227L315.914 65.5456L338.657 45.6591Z" fill="#FF8B00"/>
<path d="M370.596 68.3538V77.0362C370.596 79.1567 370.855 80.79 371.345 81.9935C371.835 83.197 372.469 84.2 373.248 85.0023H360.363C361.141 84.2 361.775 83.197 362.265 81.9935C362.755 80.79 363.015 79.128 363.015 77.0362V73.483L347.535 45.6591H356.702L368.347 67.5801L381.232 45.6591H383.971L370.567 68.3538H370.596Z" fill="#FF8B00"/>
</g>
</g>
<defs>
<clipPath id="clip0_1260_11168">
<rect width="1920" height="1080" fill="white"/>
</clipPath>
<clipPath id="clip1_1260_11168">
<rect width="324" height="40.6614" fill="white" transform="translate(60 45)"/>
</clipPath>
</defs>
</svg>
