<svg width="324" height="41" viewBox="0 0 324 41" fill="none" xmlns="http://www.w3.org/2000/svg">
<g clip-path="url(#clip0_1555_12518)">
<path d="M1.87367 36.9935C2.33488 35.79 2.59431 34.128 2.59431 32.0362V8.62513C2.59431 6.50466 2.3637 4.87133 1.87367 3.66783C1.38363 2.46432 0.778292 1.4614 0 0.659058H10.752C17.526 0.659058 23.2335 1.7766 27.932 3.98303C32.6018 6.18946 35.2826 10.3158 35.9456 16.3047C36.0897 17.9093 36.1762 19.0555 36.1762 19.7432C36.1762 26.4772 33.8701 31.5204 29.2292 34.8444C24.5883 38.197 18.4484 39.8877 10.752 39.9736H0C0.778292 39.1713 1.38363 38.1684 1.87367 36.9649V36.9935ZM23.7523 33.7842C26.9808 30.9473 28.6238 26.5631 28.6238 20.6315C28.6238 19.1128 28.5085 17.5082 28.3068 15.8175C27.6438 10.9462 25.8278 7.59355 22.8587 5.75964C19.8897 3.92572 15.8541 3.00876 10.8096 3.00876V38.1397C16.2288 38.0538 20.5527 36.621 23.7811 33.7842H23.7523Z" fill="#FF8B00"/>
<path d="M53.7884 0.659058H56.4692L72.8133 40.0023H64.6269L60.2454 29.8011H45.0831L41.0763 40.0023H38.3379L53.7884 0.659058ZM59.3229 27.652L52.2895 11.29L45.919 27.652H59.3229ZM51.7418 3.32397C51.7418 2.26373 51.54 1.37543 51.1365 0.659058H53.7596L50.6176 8.62513C51.3382 6.47601 51.713 4.72806 51.713 3.32397H51.7418Z" fill="#FF8B00"/>
<path d="M110.373 29.3426L117.061 12.207L112.218 0.630371H120.405L132.742 29.3426L143.955 0.659026H146.694L131.272 40.0023H128.591L118.445 15.5596L108.903 40.0023H106.223L89.8496 0.659026H98.0361L110.373 29.3713V29.3426Z" fill="#FF8B00"/>
<path d="M151.335 36.9935C151.825 35.79 152.084 34.128 152.084 32.0362V8.62513C152.084 6.50466 151.825 4.87133 151.335 3.66783C150.845 2.46432 150.21 1.4614 149.432 0.659058H159.752V18.3392H175.49V0.659058H185.81C185.032 1.4614 184.398 2.46432 183.908 3.66783C183.418 4.87133 183.158 6.53332 183.158 8.62513V32.0362C183.158 34.1567 183.418 35.79 183.908 36.9935C184.398 38.197 185.032 39.2 185.81 40.0023H175.49V20.5169H159.752V40.0023H149.432C150.21 39.2 150.845 38.197 151.335 36.9935Z" fill="#FF8B00"/>
<path d="M192.123 36.9935C192.613 35.79 192.872 34.128 192.872 32.0362V8.62513C192.872 6.50466 192.613 4.87133 192.123 3.66783C191.633 2.46432 190.999 1.4614 190.22 0.659058H203.105C202.327 1.4614 201.693 2.46432 201.203 3.66783C200.713 4.87133 200.453 6.53332 200.453 8.62513V32.0362C200.453 34.1567 200.713 35.79 201.203 36.9935C201.693 38.197 202.327 39.2 203.105 40.0023H190.22C190.999 39.2 191.633 38.197 192.123 36.9935Z" fill="#FF8B00"/>
<path d="M234.496 5.21523C233.459 4.38424 232.277 3.72517 230.951 3.20938C229.567 2.63629 227.895 2.34974 225.964 2.34974C223.831 2.34974 222.073 2.83687 220.602 3.78248C219.161 4.7281 218.441 6.24681 218.441 8.36727C218.441 9.62809 218.729 10.717 219.277 11.548C219.824 12.379 220.747 13.1526 222.015 13.7831C223.283 14.4135 225.013 15.0439 227.261 15.617C229.856 16.3333 232.075 17.1643 233.862 18.0813C235.649 18.9983 237.12 20.2304 238.215 21.7778C239.31 23.3252 239.858 25.2737 239.858 27.652C239.858 32.3515 238.273 35.7041 235.073 37.6813C231.902 39.6871 227.924 40.69 223.168 40.69C216.884 40.69 211.638 38.369 207.458 33.7555L209.389 30.4316C210.254 33.0392 211.926 34.9877 214.347 36.2485C216.769 37.5093 219.392 38.1398 222.217 38.1398C224.753 38.1398 226.742 37.5093 228.212 36.2485C229.683 34.9877 230.519 33.469 230.749 31.6351C230.836 30.9187 230.864 30.3743 230.864 30.0018C230.864 28.3971 230.374 27.0503 229.394 25.9328C228.414 24.8152 226.627 23.8409 224.004 23.0099L222.678 22.5801C219.997 21.7778 217.806 20.9754 216.077 20.1731C214.347 19.3708 212.906 18.1959 211.695 16.6772C210.485 15.1585 209.879 13.1813 209.879 10.717C209.879 7.0778 211.263 4.38424 214.001 2.63629C216.74 0.888335 220.43 0.0286865 225.099 0.0286865C227.838 0.0286865 230.259 0.458511 232.306 1.31816C234.381 2.17781 236.485 3.38131 238.647 4.95734L236.658 8.62517C236.226 7.19242 235.477 6.10353 234.439 5.27254L234.496 5.21523Z" fill="#FF8B00"/>
<path d="M246.2 37.0222C246.69 35.8187 246.949 34.128 246.949 32.0362V8.62513C246.949 6.50466 246.69 4.84268 246.2 3.63917C245.71 2.40701 245.076 1.43274 244.297 0.659058H257.24C256.462 1.43274 255.828 2.40701 255.338 3.63917C254.848 4.84268 254.588 6.53332 254.588 8.62513V32.0362C254.588 34.1567 254.848 35.8187 255.338 37.0222C255.828 38.2543 256.462 39.2286 257.24 40.0023H244.297C245.076 39.2286 245.71 38.2543 246.2 37.0222ZM278.657 0.659058H283.385L263.466 17.9953L285.374 39.9736H275.227L255.914 20.5456L278.657 0.659058Z" fill="#FF8B00"/>
<path d="M310.596 23.3538V32.0362C310.596 34.1567 310.856 35.79 311.346 36.9935C311.836 38.197 312.47 39.2 313.248 40.0023H300.363C301.141 39.2 301.776 38.197 302.266 36.9935C302.756 35.79 303.015 34.128 303.015 32.0362V28.483L287.536 0.659058H296.702L308.348 22.5801L321.233 0.659058H323.971L310.567 23.3538H310.596Z" fill="#FF8B00"/>
</g>
<defs>
<clipPath id="clip0_1555_12518">
<rect width="324" height="40.6614" fill="white"/>
</clipPath>
</defs>
</svg>
