<svg width="24" height="46" viewBox="0 0 24 46" fill="none" xmlns="http://www.w3.org/2000/svg">
<path fill-rule="evenodd" clip-rule="evenodd" d="M8.5 11.2518V4.5H15.5V11.2518C15.5 11.6954 15.7915 12.0826 16.2093 12.2316C19.1814 13.2914 24 16.0737 24 20.5C24 25.267 23.0137 37.0038 22.5104 42.3891C22.5033 42.4649 22.4888 42.5365 22.4609 42.6074C22.0557 43.6361 20.4753 45.5 17 45.5H7C3.52468 45.5 1.94429 43.6361 1.5391 42.6074C1.51119 42.5365 1.4967 42.4649 1.48962 42.3891C0.986295 37.0038 0 25.267 0 20.5C0 16.0737 4.81862 13.2914 7.79069 12.2316C8.20852 12.0826 8.5 11.6954 8.5 11.2518ZM15.5 3.5H8.5V1C8.5 0.447715 8.94772 0 9.5 0H14.5C15.0523 0 15.5 0.447715 15.5 1V3.5ZM13 21.5H11H9.31039C8.08052 21.5 5.70277 22.5636 6.03073 26.8182C6.3587 31.0727 6.98736 35.9545 7.2607 37.8636C7.2607 38.4091 7.75265 39.5 9.72044 39.5H11H13H14.2796C16.2474 39.5 16.7393 38.4091 16.7393 37.8636C17.0126 35.9545 17.6413 31.0727 17.9693 26.8182C18.2972 22.5636 15.9195 21.5 14.6896 21.5H13Z" fill="#2D1800"/>
</svg>
