<?xml version="1.0" encoding="UTF-8"?>
<svg id="Layer_1" data-name="Layer 1" xmlns="http://www.w3.org/2000/svg" viewBox="0 0 112.4 14.19">
  <defs>
    <style>
      .cls-1 {
        fill: #e68421;
      }
    </style>
  </defs>
  <path class="cls-1" d="m.65,12.91c.16-.42.25-1,.25-1.73V3.01c0-.74-.08-1.31-.25-1.73C.48.86.27.51,0,.23h3.73c2.35,0,4.33.39,5.96,1.16,1.62.77,2.55,2.21,2.78,4.3.05.56.08.96.08,1.2,0,2.35-.8,4.11-2.41,5.27-1.61,1.17-3.74,1.76-6.41,1.79H0c.27-.28.48-.63.65-1.05Zm7.59-1.12c1.12-.99,1.69-2.52,1.69-4.59,0-.53-.04-1.09-.11-1.68-.23-1.7-.86-2.87-1.89-3.51-1.03-.64-2.43-.96-4.18-.96v12.26c1.88-.03,3.38-.53,4.5-1.52Z"/>
  <path class="cls-1" d="m18.66.23h.93l5.67,13.73h-2.84l-1.52-3.56h-5.26l-1.39,3.56h-.95L18.66.23Zm1.92,9.42l-2.44-5.71-2.21,5.71h4.65Zm-2.63-8.49c0-.37-.07-.68-.21-.93h.91l-1.09,2.78c.25-.75.38-1.36.38-1.85Z"/>
  <path class="cls-1" d="m38.29,10.24l2.32-5.98-1.68-4.04h2.84l4.28,10.02L49.94.23h.95l-5.35,13.73h-.93l-3.52-8.53-3.31,8.53h-.93L31.17.23h2.84l4.28,10.02Z"/>
  <path class="cls-1" d="m52.5,12.91c.17-.42.26-1,.26-1.73V3.01c0-.74-.09-1.31-.26-1.73s-.39-.77-.66-1.05h3.58v6.17h5.46V.23h3.58c-.27.28-.49.63-.66,1.05-.17.42-.26,1-.26,1.73v8.17c0,.74.09,1.31.26,1.73.17.42.39.77.66,1.05h-3.58v-6.8h-5.46v6.8h-3.58c.27-.28.49-.63.66-1.05Z"/>
  <path class="cls-1" d="m66.65,12.91c.17-.42.26-1,.26-1.73V3.01c0-.74-.09-1.31-.26-1.73s-.39-.77-.66-1.05h4.47c-.27.28-.49.63-.66,1.05s-.26,1-.26,1.73v8.17c0,.74.09,1.31.26,1.73.17.42.39.77.66,1.05h-4.47c.27-.28.49-.63.66-1.05Z"/>
  <path class="cls-1" d="m81.35,1.82c-.36-.29-.77-.52-1.23-.7-.48-.2-1.06-.3-1.73-.3-.74,0-1.35.17-1.86.5-.5.33-.75.86-.75,1.6,0,.44.1.82.29,1.11s.51.56.95.78c.44.22,1.04.44,1.82.64.9.25,1.67.54,2.29.86s1.13.75,1.51,1.29c.38.54.57,1.22.57,2.05,0,1.64-.55,2.81-1.66,3.5-1.1.7-2.48,1.05-4.13,1.05-2.18,0-4-.81-5.45-2.42l.67-1.16c.3.91.88,1.59,1.72,2.03.84.44,1.75.66,2.73.66.88,0,1.57-.22,2.08-.66.51-.44.8-.97.88-1.61.03-.25.04-.44.04-.57,0-.56-.17-1.03-.51-1.42-.34-.39-.96-.73-1.87-1.02l-.46-.15c-.93-.28-1.69-.56-2.29-.84s-1.1-.69-1.52-1.22c-.42-.53-.63-1.22-.63-2.08,0-1.27.48-2.21,1.43-2.82.95-.61,2.23-.91,3.85-.91.95,0,1.79.15,2.5.45.72.3,1.45.72,2.2,1.27l-.69,1.28c-.15-.5-.41-.88-.77-1.17Z"/>
  <path class="cls-1" d="m85.41,12.92c.17-.42.26-1.01.26-1.74V3.01c0-.74-.09-1.32-.26-1.74-.17-.43-.39-.77-.66-1.04h4.49c-.27.27-.49.61-.66,1.04-.17.42-.26,1.01-.26,1.74v8.17c0,.74.09,1.32.26,1.74.17.43.39.77.66,1.04h-4.49c.27-.27.49-.61.66-1.04ZM96.67.23h1.64l-6.91,6.05,7.6,7.67h-3.52l-6.7-6.78L96.67.23Z"/>
  <path class="cls-1" d="m107.75,8.15v3.03c0,.74.09,1.31.26,1.73.17.42.39.77.66,1.05h-4.47c.27-.28.49-.63.66-1.05.17-.42.26-1,.26-1.73v-1.24L99.75.23h3.18l4.04,7.65L111.44.23h.95l-4.65,7.92Z"/>
</svg>