<svg width="24" height="24" viewBox="0 0 24 24" fill="none" xmlns="http://www.w3.org/2000/svg">
<circle cx="12" cy="12" r="11.5" fill="#FF4A81" stroke="white"/>
<path fill-rule="evenodd" clip-rule="evenodd" d="M11.9472 7.75029C10.5985 6.17358 8.34953 5.74945 6.65975 7.19324C4.96997 8.63703 4.73207 11.051 6.05906 12.7585C7.16237 14.1783 10.5014 17.1726 11.5957 18.1418C11.7181 18.2502 11.7794 18.3044 11.8508 18.3257C11.9131 18.3443 11.9813 18.3443 12.0436 18.3257C12.115 18.3044 12.1762 18.2502 12.2987 18.1418C13.393 17.1726 16.732 14.1783 17.8353 12.7585C19.1623 11.051 18.9535 8.62184 17.2346 7.19324C15.5158 5.76464 13.2959 6.17358 11.9472 7.75029Z" fill="white" stroke="white" stroke-width="0.755497" stroke-linecap="round" stroke-linejoin="round"/>
</svg>
